<mxfile host="Electron" modified="2024-02-28T13:50:04.809Z" agent="Mozilla/5.0 (Windows NT 10.0; Win64; x64) AppleWebKit/537.36 (KHTML, like Gecko) draw.io/23.1.5 Chrome/120.0.6099.109 Electron/28.1.0 Safari/537.36" etag="hKAJpvdGxOUNOI4rBozY" version="23.1.5" type="device">
  <diagram name="Page-1" id="KiJzhH5udHLUdhDxYsG-">
    <mxGraphModel dx="1434" dy="836" grid="1" gridSize="10" guides="1" tooltips="1" connect="1" arrows="1" fold="1" page="1" pageScale="1" pageWidth="1169" pageHeight="827" math="0" shadow="0">
      <root>
        <mxCell id="0" />
        <mxCell id="1" parent="0" />
        <mxCell id="6NvTiicVNWJYk7874an2-45" value="" style="rounded=0;whiteSpace=wrap;html=1;" vertex="1" parent="1">
          <mxGeometry x="180" y="110" width="790" height="565" as="geometry" />
        </mxCell>
        <mxCell id="6NvTiicVNWJYk7874an2-1" value="" style="endArrow=none;dashed=1;html=1;rounded=0;entryX=0.5;entryY=1;entryDx=0;entryDy=0;" edge="1" parent="1" source="6NvTiicVNWJYk7874an2-7" target="6NvTiicVNWJYk7874an2-2">
          <mxGeometry width="50" height="50" relative="1" as="geometry">
            <mxPoint x="275" y="640" as="sourcePoint" />
            <mxPoint x="270" y="220" as="targetPoint" />
          </mxGeometry>
        </mxCell>
        <mxCell id="6NvTiicVNWJYk7874an2-2" value="Browser" style="rounded=0;whiteSpace=wrap;html=1;fillColor=#dae8fc;strokeColor=#6c8ebf;" vertex="1" parent="1">
          <mxGeometry x="200" y="170" width="150" height="30" as="geometry" />
        </mxCell>
        <mxCell id="6NvTiicVNWJYk7874an2-3" value="Webserver" style="rounded=0;whiteSpace=wrap;html=1;fillColor=#dae8fc;strokeColor=#6c8ebf;" vertex="1" parent="1">
          <mxGeometry x="400" y="170" width="150" height="30" as="geometry" />
        </mxCell>
        <mxCell id="6NvTiicVNWJYk7874an2-4" value="API Server" style="rounded=0;whiteSpace=wrap;html=1;fillColor=#dae8fc;strokeColor=#6c8ebf;" vertex="1" parent="1">
          <mxGeometry x="585" y="170" width="150" height="30" as="geometry" />
        </mxCell>
        <mxCell id="6NvTiicVNWJYk7874an2-5" value="" style="endArrow=none;dashed=1;html=1;rounded=0;entryX=0.5;entryY=1;entryDx=0;entryDy=0;" edge="1" parent="1" target="6NvTiicVNWJYk7874an2-3">
          <mxGeometry width="50" height="50" relative="1" as="geometry">
            <mxPoint x="475" y="640" as="sourcePoint" />
            <mxPoint x="285" y="210" as="targetPoint" />
          </mxGeometry>
        </mxCell>
        <mxCell id="6NvTiicVNWJYk7874an2-6" value="" style="endArrow=none;dashed=1;html=1;rounded=0;entryX=0.5;entryY=1;entryDx=0;entryDy=0;" edge="1" parent="1" target="6NvTiicVNWJYk7874an2-4">
          <mxGeometry width="50" height="50" relative="1" as="geometry">
            <mxPoint x="660" y="640" as="sourcePoint" />
            <mxPoint x="485" y="210" as="targetPoint" />
          </mxGeometry>
        </mxCell>
        <mxCell id="6NvTiicVNWJYk7874an2-8" value="" style="endArrow=classic;html=1;rounded=0;exitX=0.75;exitY=0;exitDx=0;exitDy=0;entryX=0;entryY=0;entryDx=0;entryDy=0;" edge="1" parent="1" source="6NvTiicVNWJYk7874an2-7" target="6NvTiicVNWJYk7874an2-11">
          <mxGeometry width="50" height="50" relative="1" as="geometry">
            <mxPoint x="340" y="310" as="sourcePoint" />
            <mxPoint x="390" y="260" as="targetPoint" />
          </mxGeometry>
        </mxCell>
        <mxCell id="6NvTiicVNWJYk7874an2-9" value="" style="endArrow=none;dashed=1;html=1;rounded=0;entryX=0.5;entryY=1;entryDx=0;entryDy=0;" edge="1" parent="1" target="6NvTiicVNWJYk7874an2-7">
          <mxGeometry width="50" height="50" relative="1" as="geometry">
            <mxPoint x="275" y="640" as="sourcePoint" />
            <mxPoint x="275" y="200" as="targetPoint" />
          </mxGeometry>
        </mxCell>
        <mxCell id="6NvTiicVNWJYk7874an2-7" value="" style="rounded=0;whiteSpace=wrap;html=1;fillColor=#d5e8d4;strokeColor=#82b366;" vertex="1" parent="1">
          <mxGeometry x="265" y="250" width="20" height="300" as="geometry" />
        </mxCell>
        <mxCell id="6NvTiicVNWJYk7874an2-11" value="" style="rounded=0;whiteSpace=wrap;html=1;fillColor=#d5e8d4;strokeColor=#82b366;" vertex="1" parent="1">
          <mxGeometry x="465" y="250" width="20" height="60" as="geometry" />
        </mxCell>
        <mxCell id="6NvTiicVNWJYk7874an2-12" value="MatFunc REQ" style="text;strokeColor=none;align=center;fillColor=none;html=1;verticalAlign=middle;whiteSpace=wrap;rounded=0;fontSize=11;" vertex="1" parent="1">
          <mxGeometry x="265" y="230" width="120" height="30" as="geometry" />
        </mxCell>
        <mxCell id="6NvTiicVNWJYk7874an2-13" value="" style="endArrow=classic;html=1;rounded=0;exitX=0;exitY=1;exitDx=0;exitDy=0;" edge="1" parent="1" source="6NvTiicVNWJYk7874an2-11">
          <mxGeometry width="50" height="50" relative="1" as="geometry">
            <mxPoint x="140" y="110" as="sourcePoint" />
            <mxPoint x="290" y="310" as="targetPoint" />
          </mxGeometry>
        </mxCell>
        <mxCell id="6NvTiicVNWJYk7874an2-14" value="MatFunc RES" style="text;strokeColor=none;align=center;fillColor=none;html=1;verticalAlign=middle;whiteSpace=wrap;rounded=0;fontSize=11;" vertex="1" parent="1">
          <mxGeometry x="345" y="290" width="120" height="20" as="geometry" />
        </mxCell>
        <mxCell id="6NvTiicVNWJYk7874an2-16" value="" style="endArrow=classic;html=1;rounded=0;entryX=0;entryY=0;entryDx=0;entryDy=0;exitX=0;exitY=0;exitDx=0;exitDy=0;" edge="1" parent="1" source="6NvTiicVNWJYk7874an2-18" target="6NvTiicVNWJYk7874an2-17">
          <mxGeometry width="50" height="50" relative="1" as="geometry">
            <mxPoint x="340" y="350" as="sourcePoint" />
            <mxPoint x="380" y="380" as="targetPoint" />
          </mxGeometry>
        </mxCell>
        <mxCell id="6NvTiicVNWJYk7874an2-17" value="" style="rounded=0;whiteSpace=wrap;html=1;fillColor=#d5e8d4;strokeColor=#82b366;" vertex="1" parent="1">
          <mxGeometry x="650" y="330" width="20" height="170" as="geometry" />
        </mxCell>
        <mxCell id="6NvTiicVNWJYk7874an2-18" value="submit REQ" style="text;strokeColor=none;align=center;fillColor=none;html=1;verticalAlign=middle;whiteSpace=wrap;rounded=0;fontSize=11;" vertex="1" parent="1">
          <mxGeometry x="285" y="330" width="90" height="20" as="geometry" />
        </mxCell>
        <mxCell id="6NvTiicVNWJYk7874an2-33" value="Wolfram API" style="rounded=0;whiteSpace=wrap;html=1;fillColor=#dae8fc;strokeColor=#6c8ebf;" vertex="1" parent="1">
          <mxGeometry x="770" y="170" width="150" height="30" as="geometry" />
        </mxCell>
        <mxCell id="6NvTiicVNWJYk7874an2-34" value="" style="endArrow=classic;html=1;rounded=0;entryX=0;entryY=0;entryDx=0;entryDy=0;" edge="1" parent="1" target="6NvTiicVNWJYk7874an2-36">
          <mxGeometry width="50" height="50" relative="1" as="geometry">
            <mxPoint x="670" y="350" as="sourcePoint" />
            <mxPoint x="770" y="350" as="targetPoint" />
          </mxGeometry>
        </mxCell>
        <mxCell id="6NvTiicVNWJYk7874an2-35" value="" style="endArrow=none;dashed=1;html=1;rounded=0;entryX=0.5;entryY=1;entryDx=0;entryDy=0;" edge="1" parent="1" target="6NvTiicVNWJYk7874an2-33">
          <mxGeometry width="50" height="50" relative="1" as="geometry">
            <mxPoint x="845" y="640" as="sourcePoint" />
            <mxPoint x="670" y="210" as="targetPoint" />
          </mxGeometry>
        </mxCell>
        <mxCell id="6NvTiicVNWJYk7874an2-36" value="" style="rounded=0;whiteSpace=wrap;html=1;fillColor=#d5e8d4;strokeColor=#82b366;" vertex="1" parent="1">
          <mxGeometry x="835" y="350" width="20" height="80" as="geometry" />
        </mxCell>
        <mxCell id="6NvTiicVNWJYk7874an2-37" value="" style="endArrow=classic;html=1;rounded=0;exitX=0;exitY=1;exitDx=0;exitDy=0;" edge="1" parent="1" source="6NvTiicVNWJYk7874an2-36">
          <mxGeometry width="50" height="50" relative="1" as="geometry">
            <mxPoint x="830" y="450" as="sourcePoint" />
            <mxPoint x="673" y="430" as="targetPoint" />
          </mxGeometry>
        </mxCell>
        <mxCell id="6NvTiicVNWJYk7874an2-38" value="calculate REQ" style="text;strokeColor=none;align=center;fillColor=none;html=1;verticalAlign=middle;whiteSpace=wrap;rounded=0;fontSize=11;" vertex="1" parent="1">
          <mxGeometry x="670" y="330" width="90" height="20" as="geometry" />
        </mxCell>
        <mxCell id="6NvTiicVNWJYk7874an2-39" value="apiResult RES" style="text;strokeColor=none;align=center;fillColor=none;html=1;verticalAlign=middle;whiteSpace=wrap;rounded=0;fontSize=11;" vertex="1" parent="1">
          <mxGeometry x="745" y="410" width="90" height="20" as="geometry" />
        </mxCell>
        <mxCell id="6NvTiicVNWJYk7874an2-40" value="" style="endArrow=classic;html=1;rounded=0;exitX=0;exitY=1;exitDx=0;exitDy=0;entryX=1.25;entryY=0.833;entryDx=0;entryDy=0;entryPerimeter=0;" edge="1" parent="1" source="6NvTiicVNWJYk7874an2-17" target="6NvTiicVNWJYk7874an2-7">
          <mxGeometry width="50" height="50" relative="1" as="geometry">
            <mxPoint x="550" y="480" as="sourcePoint" />
            <mxPoint x="350" y="520" as="targetPoint" />
          </mxGeometry>
        </mxCell>
        <mxCell id="6NvTiicVNWJYk7874an2-41" value="mathResult RES" style="text;strokeColor=none;align=center;fillColor=none;html=1;verticalAlign=middle;whiteSpace=wrap;rounded=0;fontSize=11;" vertex="1" parent="1">
          <mxGeometry x="550" y="500" width="100" height="20" as="geometry" />
        </mxCell>
        <mxCell id="6NvTiicVNWJYk7874an2-46" value="Laufzeitsicht" style="text;strokeColor=none;align=center;fillColor=none;html=1;verticalAlign=middle;whiteSpace=wrap;rounded=0;fontSize=17;" vertex="1" parent="1">
          <mxGeometry x="185" y="110" width="100" height="30" as="geometry" />
        </mxCell>
      </root>
    </mxGraphModel>
  </diagram>
</mxfile>
